<?xml version="1.0" encoding="UTF-8" standalone="no"?>
<!-- Created with Inkscape (http://www.inkscape.org/) -->

<svg
   width="210mm"
   height="297mm"
   viewBox="0 0 210 297"
   version="1.1"
   id="svg5"
   inkscape:version="1.1.2 (b8e25be833, 2022-02-05)"
   sodipodi:docname="1.svg"
   xmlns:inkscape="http://www.inkscape.org/namespaces/inkscape"
   xmlns:sodipodi="http://sodipodi.sourceforge.net/DTD/sodipodi-0.dtd"
   xmlns="http://www.w3.org/2000/svg"
   xmlns:svg="http://www.w3.org/2000/svg">
  <sodipodi:namedview
     id="namedview7"
     pagecolor="#ffffff"
     bordercolor="#666666"
     borderopacity="1.0"
     inkscape:pageshadow="2"
     inkscape:pageopacity="0.0"
     inkscape:pagecheckerboard="0"
     inkscape:document-units="mm"
     showgrid="false"
     inkscape:zoom="0.77771465"
     inkscape:cx="65.576751"
     inkscape:cy="560.61693"
     inkscape:window-width="3440"
     inkscape:window-height="1369"
     inkscape:window-x="-8"
     inkscape:window-y="-8"
     inkscape:window-maximized="1"
     inkscape:current-layer="layer1" />
  <defs
     id="defs2">
    <rect
       x="181.30043"
       y="243.01973"
       width="425.60597"
       height="163.29897"
       id="rect5115" />
  </defs>
  <g
     inkscape:label="Слой 1"
     inkscape:groupmode="layer"
     id="layer1">
    <g
       aria-label="*"
       transform="scale(0.97725241,1.0232771)"
       id="text51383"
       style="font-size:96.0595px;line-height:1.25;font-family:Webdings;-inkscape-font-specification:Webdings;stroke-width:2.40149;fill:#b7b7c8">
      <path
         d="m 125.62632,87.766068 -11.30387,6.894896 6.80108,10.600316 -9.75604,0.65666 3.93994,12.33576 -13.97741,-5.95681 -6.238237,7.69226 -8.161305,-6.23824 -8.630346,7.17632 -8.583441,-7.17632 -8.114402,6.23824 -6.238239,-7.69226 -13.977408,5.95681 3.939941,-12.33576 -9.756043,-0.65666 6.801087,-10.600316 -11.303877,-6.894896 11.303877,-6.660375 -6.988704,-10.17818 9.94366,-0.938081 -3.939941,-12.38267 13.977408,5.956815 6.238239,-7.645361 8.114402,6.191335 8.677249,-7.129416 8.536538,7.129416 8.161305,-6.191335 6.238237,7.645361 13.97741,-5.956815 -3.93994,12.38267 9.94366,0.938081 -6.9887,10.17818 z"
         id="path60499"
         style="fill:#b7b7c8" />
    </g>
    <g
       id="g60473"
       transform="translate(0.14213506,0.03549956)">
      <g
         aria-label="DRM"
         transform="scale(0.26458333)"
         id="text5113"
         style="font-size:96px;line-height:1.25;font-family:'Franklin Gothic Heavy';-inkscape-font-specification:'Franklin Gothic Heavy, ';white-space:pre;shape-inside:url(#rect5115);fill:#2c5aa0">
        <path
           d="m 186.87891,330.53462 v -63.98438 h 24.75 q 16.125,0 24.14062,9.5625 8.01563,9.5625 8.01563,22.125 0,14.34375 -8.625,23.34375 -8.57813,8.95313 -22.3125,8.95313 z m 19.64062,-14.71875 h 5.10938 q 4.875,0 8.20312,-4.73438 3.375,-4.73437 3.375,-12.89062 0,-6.98438 -3,-12.04688 -2.95312,-5.0625 -8.57812,-5.0625 h -5.10938 z"
           id="path60577" />
        <path
           d="m 309.03516,330.53462 h -21.79688 l -9.32812,-24.46875 h -6.1875 v 24.46875 h -19.64063 v -63.98438 h 33.42188 q 11.0625,0 17.15625,5.20313 6.14062,5.15625 6.14062,13.64062 0,5.53125 -2.25,9.79688 -2.25,4.21875 -9.09375,7.45312 z m -37.3125,-38.15625 h 8.39062 q 3.70313,0 5.95313,-1.54688 2.25,-1.54687 2.25,-4.54687 0,-6.14063 -7.54688,-6.14063 h -9.04687 z"
           id="path60574" />
        <path
           d="m 387.87891,266.55024 v 63.98438 h -18.23438 v -45.75 l -11.85937,45.75 h -12.46875 l -12.28125,-45.75 v 45.75 h -14.71875 v -63.98438 h 25.64062 l 9.28125,33.98438 8.85938,-33.98438 z"
           id="path60571" />
      </g>
      <g
         aria-label="INFO"
         transform="scale(0.99618437,1.0038302)"
         id="text21675"
         style="font-size:24.2916px;line-height:1.25;fill:#2c5aa0;stroke-width:0.60729">
        <path
           d="M 52.119701,107.80995 H 49.344196 V 89.247279 h 2.775505 z"
           style="font-weight:bold;font-stretch:condensed;font-family:'Agency FB';-inkscape-font-specification:'Agency FB Bold Condensed'"
           id="path60568" />
        <path
           d="M 63.802916,107.80995 H 61.371384 L 56.923459,96.126736 q 0.177917,0.854002 0.177917,1.340308 V 107.80995 H 54.397038 V 89.247279 h 2.431532 l 4.447925,11.445991 Q 61.098578,99.839271 61.098578,99.352964 V 89.247279 h 2.704338 z"
           style="font-weight:bold;font-stretch:condensed;font-family:'Agency FB';-inkscape-font-specification:'Agency FB Bold Condensed'"
           id="path60565" />
        <path
           d="m 73.612072,91.702534 h -4.803759 v 5.491704 h 4.103952 v 2.40781 h -4.103952 v 8.207902 H 66.032808 V 89.247279 h 7.579264 z"
           style="font-weight:bold;font-stretch:condensed;font-family:'Agency FB';-inkscape-font-specification:'Agency FB Bold Condensed'"
           id="path60562" />
        <path
           d="m 84.548037,106.11381 q 0,1.69614 -1.68428,1.69614 h -6.025456 q -1.648697,0 -1.648697,-1.69614 V 90.955283 q 0,-1.708004 1.648697,-1.708004 h 6.025456 q 1.68428,0 1.68428,1.708004 z m -2.775505,-0.68795 V 91.631367 h -3.807423 v 13.794493 z"
           style="font-weight:bold;font-stretch:condensed;font-family:'Agency FB';-inkscape-font-specification:'Agency FB Bold Condensed'"
           id="path60559" />
      </g>
      <g
         aria-label=""
         transform="scale(1.0547531,0.94808917)"
         id="text34417"
         style="font-size:20.2922px;line-height:1.25;fill:#2c5aa0;stroke-width:0.507306">
        <path
           d="m 98.292372,101.38576 v 12.68263 h -15.21915 v -12.68263 h 2.536525 v -2.53652 q 0,-1.05028 0.396332,-1.971752 0.396332,-0.93138 1.080005,-1.615053 0.693581,-0.693581 1.615053,-1.089913 0.931381,-0.396332 1.98166,-0.396332 1.05028,0 1.971752,0.396332 0.931381,0.396332 1.615053,1.089913 0.693581,0.683673 1.089913,1.615053 0.396332,0.921472 0.396332,1.971752 v 2.53652 z m -10.1461,0 h 5.07305 v -2.53652 q 0,-0.52514 -0.198166,-0.980922 -0.198166,-0.46569 -0.544956,-0.812481 -0.346791,-0.34679 -0.812481,-0.544956 -0.455782,-0.198166 -0.980922,-0.198166 -0.52514,0 -0.99083,0.198166 -0.455781,0.198166 -0.802572,0.544956 -0.346791,0.346791 -0.544957,0.812481 -0.198166,0.455782 -0.198166,0.980922 z m 7.609575,2.53653 h -10.1461 v 7.60957 h 10.1461 z"
           style="font-weight:bold;-inkscape-font-specification:'sans-serif Bold'"
           id="path60556" />
      </g>
    </g>
    <text
       xml:space="preserve"
       style="font-style:normal;font-weight:normal;font-size:10.5833px;line-height:1.25;font-family:sans-serif;fill:#000000;fill-opacity:1;stroke:none;stroke-width:0.264583"
       x="69.742271"
       y="196.97939"
       id="text44161"><tspan
         sodipodi:role="line"
         id="tspan44159"
         style="stroke-width:0.264583"
         x="69.742271"
         y="196.97939">*</tspan></text>
    <text
       xml:space="preserve"
       style="font-style:normal;font-weight:normal;font-size:10.5833px;line-height:1.25;font-family:sans-serif;fill:#000000;fill-opacity:1;stroke:none;stroke-width:0.264583"
       x="97.298973"
       y="158.19586"
       id="text54723"><tspan
         sodipodi:role="line"
         id="tspan54721"
         style="stroke-width:0.264583"
         x="97.298973"
         y="158.19586" /></text>
  </g>
</svg>
